<svg width="853" height="813" viewBox="0 0 853 813" fill="none" xmlns="http://www.w3.org/2000/svg">
<rect width="853" height="813" rx="43" fill="white"/>
<g clip-path="url(#clip0_215_8)">
<path d="M234.338 314.102H74.0024V499.899L234.338 314.102Z" fill="#44C8F5"/>
<path d="M154.159 314.102H74V407.042L154.159 314.102Z" fill="black"/>
<path d="M458.236 354.434L437.307 459.533H474.283L495.201 354.434H458.236ZM368.518 354.418L320.958 459.517H345.417L353.31 441.997H387.263L389.791 459.517H425.889L410.545 354.418H368.518ZM373.778 415.343H365.297L378.971 385.028L383.407 415.343H373.778ZM627.111 354.434L606.239 459.533H643.207L664.094 354.434H627.111ZM610.587 354.434H572.695L540.979 388.814L547.9 354.434H512.458L491.581 459.533H526.915L534.131 423.249L553.023 459.533H595.789L564.114 404.494L610.587 354.434ZM290.064 354.483L280.502 354.444H234.232L213.363 459.504H259.303L277.482 459.533C303.073 459.533 328.26 435.614 328.26 398.964C328.255 355.838 290.064 354.483 290.064 354.483ZM291.941 402.195C291.941 402.195 289.539 436.335 266.378 436.335H253.273L264.815 379.647H276.707C280.963 379.686 293.279 381.066 291.941 402.195ZM752.399 354.418L740.064 416.306L723.636 354.418H682.515L661.625 459.533H687.196L699.646 397.105L716.128 459.533H757.071L778 354.418H752.399Z" fill="#00A1E4"/>
</g>
<defs>
<clipPath id="clip0_215_8">
<rect width="704" height="446" fill="white" transform="translate(74 184)"/>
</clipPath>
</defs>
</svg>
